<?xml version="1.0" encoding="UTF-8"?>
<svg width="16px" height="16px" viewBox="0 0 16 16" version="1.1" xmlns="http://www.w3.org/2000/svg" xmlns:xlink="http://www.w3.org/1999/xlink">
    <!-- Generator: Sketch 52.1 (67048) - http://www.bohemiancoding.com/sketch -->
    <title>icon/crud/bin NEW 16X16</title>
    <desc>Created with Sketch.</desc>
    <defs>
        <path d="M2.5,5.37263997 L13.5,5.37263997 L13.5,14 C13.5,15.1045695 12.6045695,16 11.5,16 L4.5,16 C3.3954305,16 2.5,15.1045695 2.5,14 L2.5,5.37263997 Z M1,2 L4.66666667,2 L4.66666667,1 C4.66666667,0.44771525 5.11443732,7.34391279e-14 5.66473403,6.71962256e-14 L10.335266,1.42108547e-14 C10.8864834,7.95750762e-15 11.3333333,0.443864822 11.3333333,1 L11.3333333,2 L15,2 L15,4 L1,4 L1,2 Z M6.00356038,1 L6.00356038,2 L10.007487,2 L10.007487,1 L6.00356038,1 Z M10,7 L10,14.0314063 L11,14.0314063 L11,7 L10,7 Z M7.5,7 L7.5,14.0314063 L8.5,14.0314063 L8.5,7 L7.5,7 Z M5,7 L5,14.0314063 L6,14.0314063 L6,7 L5,7 Z" id="path-1"></path>
    </defs>
    <g id="icon/crud/bin-NEW-16X16" stroke="none" stroke-width="1" fill="none" fill-rule="evenodd">
        <mask id="mask-2" fill="white">
            <use xlink:href="#path-1"></use>
        </mask>
        <use id="Combined-Shape" fill="#FFFFFF" xlink:href="#path-1"></use>
    </g>
</svg>