<?xml version="1.0" encoding="utf-8"?>
<!-- Generator: Adobe Illustrator 22.0.1, SVG Export Plug-In . SVG Version: 6.00 Build 0)  -->
<svg version="1.1" id="Calque_1" xmlns="http://www.w3.org/2000/svg" xmlns:xlink="http://www.w3.org/1999/xlink" x="0px" y="0px"
	 viewBox="0 0 58.3 24" style="enable-background:new 0 0 58.3 24;" xml:space="preserve">
<style type="text/css">
	.st0{fill:#FFFFFF;}
</style>
<title>Logo</title>
<desc>Created with Sketch.</desc>
<g id="Nav">
	<g id="NAV-Functions" transform="translate(-24.000000, -10.000000)">
		<g id="Global-Header-Panel">
			<g id="Global-Header">
				<g id="Logo" transform="translate(24.000000, 6.000000)">
					<g id="Sage-white" transform="translate(0.000000, 8.000000)">
						<path id="Shape" class="st0" d="M47.5,0.1c-4,0-6.6,2.7-6.6,7.2c0,5.6,4,7.2,6.8,7.2c3.6,0,5.7-2.4,5.7-2.4l-1.8-1.8
							c-1,0.9-2.1,1.4-3.8,1.4c-2.2,0-3.7-1.3-3.7-3.1H54C54,8.6,55.7,0.1,47.5,0.1L47.5,0.1z M44.1,6.2c0-2.4,1.8-3.5,3.7-3.5
							c1.9,0,3.7,1.2,3.7,3.5H44.1L44.1,6.2z"/>
						<path id="XMLID_88_" class="st0" d="M37.5,0.4v1.5c-1.1-1.2-2.3-1.9-4.1-1.9c-1,0-1.8,0.2-2.5,0.5c-0.7,0.4-1.2,0.7-1.6,1.2
							c-0.4,0.4-0.7,1.1-0.9,1.7c-0.2,0.6-0.3,1.9-0.3,3.8c0,1.8,0.1,3,0.3,3.7c0.2,0.6,0.5,1.2,0.9,1.7c0.4,0.4,0.8,0.8,1.5,1.2
							c0.7,0.4,1.5,0.7,2.6,0.6c1.7,0,3.1-0.6,4.1-1.8v0.9c0,1-0.4,1.7-1,2.2c-0.6,0.5-1.5,0.9-2.6,0.9c-1,0-2-0.6-2.6-0.9l-2.1,2.1
							c1.4,1.1,3,1.9,4.7,1.9c1.9,0,3.4-0.6,4.7-1.6c1.3-1,2-2.8,2-4.8V0.4H37.5L37.5,0.4z M37.5,7.3c0,1.1,0,1.8-0.1,2.2
							c-0.1,0.4-0.3,0.8-0.5,1.1c-0.2,0.2-0.5,0.5-0.9,0.7c-0.4,0.2-1,0.4-1.6,0.4c-1.3,0-2.3-0.8-2.5-1c-0.3-0.3-0.4-0.6-0.5-1.1
							c-0.1-0.4-0.1-1.2-0.1-2.2c0-1.1,0-2,0.1-2.4c0.1-0.4,0.3-0.8,0.5-1c0.2-0.2,0.5-0.5,1-0.7c0.4-0.2,0.9-0.3,1.6-0.3
							s1.2,0.1,1.6,0.3c0.4,0.2,0.7,0.5,0.9,0.7c0.3,0.3,0.4,0.6,0.5,1.1c0.1,0.4,0.1,1.2,0.1,2.2C37.5,7.1,37.5,7.2,37.5,7.3
							L37.5,7.3L37.5,7.3z"/>
						<path id="Shape_1_" class="st0" d="M21.6,0.1c-3.2,0-5.2,1.6-5.6,1.9l1.9,1.9c0.4-0.3,1.7-1.2,3.7-1.2c2.4,0,3.1,1,3.1,2v1.4
							h-4.3c-1.6,0-4.7,0.4-4.7,3.9c0,2.6,1.5,4.5,5,4.5c1.8,0,3.1-0.6,4-1.7v1.4h3.2V4.9C27.9,1.8,25.9,0.1,21.6,0.1L21.6,0.1z
							 M24.8,9.2c0,2.7-1.9,2.5-3.6,2.5c-1.7,0-2.8-0.5-2.8-1.7c0-1.1,0.9-1.5,2.7-1.5h3.7C24.8,8.6,24.8,9,24.8,9.2L24.8,9.2z"/>
						<path id="Shape_2_" class="st0" d="M11.1,5.9c-1.3-0.1-4.9,0-4.9-1.7c0-1,1.5-1.5,3-1.5c2.3,0,3.7,0.9,4.2,1.2L15.2,2
							c-0.6-0.4-2.7-1.9-6.1-1.9C6,0.1,3.2,1.7,3.2,4.4c0,4,4.8,4,6.9,4.2c1.2,0.1,2.3,0.2,2.3,1.4c0,1.1-1.7,1.7-3,1.7
							C7.2,11.7,6,11,4.7,9.9l-2,2c1.9,1.8,4.2,2.6,6.6,2.6c3.6,0,6.3-1.6,6.3-4.8C15.5,7.6,14.1,6.3,11.1,5.9L11.1,5.9z"/>
					</g>
				</g>
			</g>
		</g>
	</g>
</g>
</svg>
